<svg width="38" height="38" viewBox="0 0 38 38" fill="none" xmlns="http://www.w3.org/2000/svg">
<g clip-path="url(#clip0)">
<path d="M30.1811 8.89884C28.7783 7.62969 26.7298 7.78555 25.5052 9.03243C24.2584 10.3016 24.1694 12.4614 25.728 13.8863C28.2217 16.1352 29.4686 19.5641 28.8673 23.0153C28.0658 27.691 23.9912 31.2981 19.0037 31.3203C13.8826 31.3203 9.9639 27.6243 9.16241 23.1712C8.51663 19.7199 9.69678 16.2465 12.2795 13.8863C13.8381 12.4614 13.7491 10.3016 12.5023 9.03243C11.2776 7.78555 9.22913 7.62969 7.80413 8.9211C3.88553 12.4835 1.83694 17.7384 2.39358 23.0597C3.30647 31.5208 10.4315 37.9777 19.0037 38C19.026 38 19.026 38 19.0483 38C27.5315 38 34.4784 31.5208 35.5471 23.6163C36.2819 18.1168 34.2779 12.6171 30.1811 8.89884Z" fill="#FF7557"/>
<path d="M35.547 23.6163C34.4784 31.5208 27.5315 38 19.0483 38C19.026 38 19.026 38 19.0037 38V31.3203C23.9912 31.2981 28.0658 27.691 28.8673 23.0153C29.4686 19.5641 28.2217 16.1352 25.728 13.8863C24.1694 12.4614 24.2583 10.3016 25.5052 9.03243C26.7298 7.78555 28.7783 7.62969 30.1811 8.89884C34.2779 12.6171 36.2819 18.1168 35.547 23.6163Z" fill="#F56A4C"/>
<path d="M19.0037 0C17.1555 0 15.6638 1.49172 15.6638 3.33984V16.8477C15.6638 18.6958 17.1555 20.1875 19.0037 20.1875C20.8518 20.1875 22.3435 18.6958 22.3435 16.8477V3.33984C22.3435 1.49172 20.8517 0 19.0037 0Z" fill="#FF7557"/>
</g>
<defs>
<clipPath id="clip0">
<rect width="38" height="38" fill="white"/>
</clipPath>
</defs>
</svg>
